<svg xmlns="http://www.w3.org/2000/svg" viewBox="0 0 128 128" width="128" height="128">

    <!-- 손잡이 -->
    <rect x="54" y="78" width="20" height="34" rx="8" fill="#2E7D57"></rect>

    <!-- 본체 -->
    <circle cx="64" cy="50" r="30" fill="#66BB6A"></circle>

    <!-- 중심 -->
    <circle cx="64" cy="50" r="7" fill="#2E7D57"></circle>

    <!-- 날개 1 -->
    <path d="
        M64 50
        C64 30 78 22 90 26
        C86 40 76 50 64 50
        Z" fill="#4CAF50"></path>

    <!-- 날개 2 -->
    <path d="
        M64 50
        C82 50 92 62 90 76
        C74 74 64 64 64 50
        Z" fill="#4CAF50"></path>

    <!-- 날개 3 -->
    <path d="
        M64 50
        C50 62 38 60 30 74
        C28 60 40 48 64 50
        Z" fill="#4CAF50"></path>

    <!-- 날개 4 -->
    <path d="
        M64 50
        C52 38 50 26 38 22
        C48 20 60 30 64 50
        Z" fill="#4CAF50"></path>

</svg>